<?xml version="1.0" standalone="no"?>
<!DOCTYPE svg PUBLIC "-//W3C//DTD SVG 20010904//EN"
 "http://www.w3.org/TR/2001/REC-SVG-20010904/DTD/svg10.dtd">
<svg version="1.0" xmlns="http://www.w3.org/2000/svg"
 width="1280.000000pt" height="1280.000000pt" viewBox="0 0 1280.000000 1280.000000"
 preserveAspectRatio="xMidYMid meet">
<metadata>
Created by potrace 1.11, written by Peter Selinger 2001-2013
</metadata>
<g transform="translate(0.000000,1280.000000) scale(0.100000,-0.100000)"
fill="#000000" stroke="none">
<path d="M3875 11624 c-16 -2 -77 -9 -135 -15 -326 -34 -637 -126 -925 -272
-624 -317 -1005 -872 -1100 -1600 -13 -104 -15 -476 -15 -3108 l0 -2989 620 0
620 0 0 1695 0 1695 2960 0 2960 0 0 600 0 600 -2970 0 -2971 0 3 788 c3 778
4 788 26 867 58 209 174 360 342 442 100 49 173 69 301 83 60 6 1435 10 3807
10 l3712 0 0 605 0 605 -3602 -1 c-1982 -1 -3616 -4 -3633 -5z"/>
<path d="M9360 8225 l0 -1695 -2960 0 -2960 0 0 -1695 0 -1695 -1120 0 -1120
0 0 -1105 0 -1105 4148 3 c3850 3 4155 4 4257 20 364 56 606 131 880 270 624
317 1005 872 1100 1600 13 104 15 526 15 3608 l0 3489 -1120 0 -1120 0 0
-1695z m1740 -1794 c0 -2632 -2 -3004 -15 -3108 -83 -633 -381 -1136 -870
-1465 -256 -172 -573 -302 -895 -367 -297 -59 21 -55 -3977 -58 l-3653 -3 0
605 0 605 3713 0 c2371 0 3746 4 3806 10 128 14 201 34 301 83 168 82 284 233
342 442 22 79 23 89 26 868 l3 787 -2971 0 -2970 0 0 600 0 600 2960 0 2960 0
0 1695 0 1695 620 0 620 0 0 -2989z"/>
</g>
</svg>
